<svg version="1.1" id="Layer_1" xmlns="http://www.w3.org/2000/svg" xmlns:xlink="http://www.w3.org/1999/xlink" x="0px" y="0px"
	 width="100%" viewBox="0 0 256 272" enable-background="new 0 0 256 272" xml:space="preserve">
<path fill="#000000" opacity="1.000000" stroke="none" 
	d="
M55.468658,273.000000 
	C54.404610,268.121002 60.530594,270.641968 60.905006,266.967346 
	C64.776749,269.895874 68.340385,272.147095 72.516083,268.673065 
	C74.153091,267.311127 76.579269,268.183655 77.417816,268.450531 
	C83.804512,270.483276 89.899368,270.228516 96.274643,268.459442 
	C98.177185,267.931488 100.524124,269.575317 102.827362,269.897949 
	C106.280891,270.381744 108.988129,269.803650 111.903389,266.234772 
	C111.146652,269.971619 116.301254,268.898895 115.027168,272.725922 
	C95.312439,273.000000 75.624878,273.000000 55.468658,273.000000 
z"/>
<path fill="#000000" opacity="1.000000" stroke="none" 
	d="
M174.468658,273.000000 
	C173.931213,271.362671 171.606750,269.554871 173.919052,268.152161 
	C175.993851,266.893524 177.631668,268.073151 178.385391,269.627228 
	C187.533508,265.090302 197.111923,269.318481 207.055084,268.354736 
	C208.137253,269.040314 207.145920,270.798889 207.115753,272.658630 
	C196.312439,273.000000 185.624878,273.000000 174.468658,273.000000 
z"/>
<path fill="#000000" opacity="1.000000" stroke="none" 
	d="
M151.468536,273.000000 
	C150.448883,271.723816 148.237427,271.036591 149.210312,269.303864 
	C150.221954,267.502075 152.659241,269.063568 153.029663,268.866821 
	C155.853653,267.366760 158.725418,268.150085 161.547226,267.861786 
	C163.898529,267.621552 165.817627,267.721497 166.613113,270.324493 
	C168.169754,269.612457 168.604446,267.654846 170.630478,267.974518 
	C172.218872,268.984802 171.318665,270.925018 171.960739,272.681183 
	C165.312363,273.000000 158.624710,273.000000 151.468536,273.000000 
z"/>
<path fill="#000000" opacity="1.000000" stroke="none" 
	d="
M118.468536,273.000000 
	C119.216064,270.496704 121.111374,269.533508 123.968254,269.716980 
	C127.558174,269.947540 131.178543,269.743408 134.784561,269.668396 
	C136.737686,269.627747 138.412415,269.927155 138.978409,272.587097 
	C132.312347,273.000000 125.624710,273.000000 118.468536,273.000000 
z"/>
<path fill="#000000" opacity="1.000000" stroke="none" 
	d="
M138.478912,78.523354 
	C133.169510,73.601486 127.458389,70.041504 121.171143,67.142403 
	C97.725250,56.331310 74.401512,45.255421 51.017529,34.309654 
	C49.737427,33.710453 48.530987,32.559761 46.502937,33.380802 
	C47.589649,39.739258 51.230644,44.580177 55.826412,48.712147 
	C66.254494,58.087833 78.700211,64.185539 91.384392,69.739571 
	C103.129166,74.882256 115.053162,79.617737 126.927055,84.461876 
	C129.719299,85.601021 132.120834,87.012833 132.140640,90.388054 
	C132.163010,94.198975 128.331635,96.240906 123.958656,94.560570 
	C108.254845,88.526283 92.648254,82.251442 77.472382,74.958893 
	C75.566475,74.043037 73.795586,72.707016 71.228477,72.758278 
	C71.635895,78.026146 74.747749,81.714630 78.008667,85.205963 
	C88.120522,96.032326 101.004677,102.679817 114.202660,108.789154 
	C122.675049,112.711029 131.409103,115.973732 140.317123,118.779732 
	C143.658234,119.832169 146.958069,121.369072 145.630157,125.717613 
	C144.235550,130.284653 140.493378,129.773331 136.957031,128.693680 
	C123.405411,124.556335 110.389145,119.066414 97.269524,112.434059 
	C97.153816,117.962639 99.957756,121.646111 102.976059,125.044510 
	C108.973389,131.797104 116.904373,135.781113 124.908714,139.559937 
	C128.370407,141.194199 131.961517,142.552078 135.468643,144.092834 
	C141.801849,146.875122 142.457291,149.238586 138.759415,155.270309 
	C132.409515,165.627838 122.873695,172.371048 113.238899,179.420227 
	C101.547104,187.974350 90.602745,186.648285 78.877113,180.612167 
	C69.808861,175.944000 62.154350,170.188416 60.297798,159.300400 
	C59.050865,151.987579 61.590382,145.488739 64.866249,139.247604 
	C66.482956,136.167496 68.570122,133.314163 70.625580,130.490067 
	C72.777092,127.533997 75.518280,125.576424 79.052528,128.299438 
	C82.371193,130.856339 81.226234,133.792435 79.167290,136.620499 
	C75.923729,141.075668 73.049095,145.700272 71.279579,151.008987 
	C69.349991,156.797928 70.935280,161.518402 75.101578,165.524033 
	C80.827560,171.029190 88.231850,173.228256 95.587059,175.417847 
	C96.449699,175.674667 97.645981,175.488220 98.474937,175.077759 
	C108.835449,169.947754 118.744583,164.172653 126.044609,154.868149 
	C126.524574,154.256393 126.758438,153.451553 127.221100,152.501831 
	C120.958488,149.295425 114.776886,146.436218 108.895905,143.054276 
	C97.526924,136.516357 87.950150,127.942406 86.491760,114.193810 
	C85.714684,106.868103 82.305542,102.887924 77.011078,98.680779 
	C67.114502,90.816658 59.489300,81.229790 59.676422,67.566605 
	C59.715919,64.682693 57.592587,63.622906 55.752403,62.238022 
	C46.681622,55.411503 38.649647,47.844963 36.332306,35.984562 
	C35.648178,32.483105 35.564632,29.100250 36.418251,25.614573 
	C37.954403,19.341839 40.541737,17.909582 46.468441,20.672714 
	C75.151489,34.045238 104.662300,45.942547 132.244171,61.300144 
	C166.128174,80.166771 180.809052,118.407356 160.751511,156.567917 
	C153.091995,171.140549 142.430527,183.162247 129.279968,192.904129 
	C125.420792,195.763000 125.174133,197.990005 127.722481,201.815231 
	C135.699356,213.789062 144.807846,224.414642 158.474991,230.171051 
	C162.194321,231.737579 165.979034,232.685455 170.089615,232.645905 
	C182.086609,232.530457 194.085663,232.601303 206.083771,232.640930 
	C210.144180,232.654343 214.246185,232.093750 215.301727,227.576157 
	C216.354019,223.072586 212.847153,220.692734 209.324142,218.844421 
	C202.380768,215.201599 195.208023,212.065903 187.739807,209.670227 
	C185.593719,208.981766 183.812622,207.983185 182.373001,206.256729 
	C174.942749,197.346115 168.903915,187.638596 165.348251,176.519958 
	C164.410797,173.588562 163.732285,170.500412 166.802658,168.365280 
	C169.905289,166.207718 173.606186,168.016052 175.105743,172.578903 
	C177.950287,181.234192 182.372253,188.980209 187.833664,196.219635 
	C189.616028,198.582275 191.673996,200.151581 194.529846,201.071411 
	C201.995789,203.476166 209.095734,206.787369 216.004974,210.490982 
	C223.021561,214.252106 227.379028,222.716446 225.900208,229.595032 
	C224.283783,237.113693 217.298431,242.860413 208.705414,243.004288 
	C194.544846,243.241364 180.322418,243.872604 166.229218,242.877167 
	C152.539413,241.910217 141.615372,234.173264 132.181427,224.576172 
	C124.890312,217.158936 119.115189,208.596664 114.377151,199.345566 
	C111.641289,194.003754 112.038872,192.373795 116.981148,188.945480 
	C129.437515,180.304825 140.223251,170.017303 148.255371,157.063217 
	C165.700974,128.927109 162.385834,101.864357 138.478912,78.523354 
z"/>
</svg>